<svg xmlns="http://www.w3.org/2000/svg" viewBox="0 0 24 24" fill="#f59e0b" width="24" height="24">
  <path d="M12 2a1 1 0 0 1 1 1v1.5a.5.5 0 0 0 1 0V3a2 2 0 0 0-4 0v1.5a.5.5 0 0 0 1 0V3a1 1 0 0 1 1-1z"/>
  <path d="M18 4H6a3 3 0 0 0-3 3v10a3 3 0 0 0 3 3h12a3 3 0 0 0 3-3V7a3 3 0 0 0-3-3zm1 13a1 1 0 0 1-1 1H6a1 1 0 0 1-1-1V7a1 1 0 0 1 1-1h12a1 1 0 0 1 1 1v10z"/>
  <path d="M12 8a4 4 0 1 0 0 8 4 4 0 0 0 0-8zm0 6a2 2 0 1 1 0-4 2 2 0 0 1 0 4z"/>
  <path d="M19 10a1 1 0 1 1-2 0 1 1 0 0 1 2 0zM19 14a1 1 0 1 1-2 0 1 1 0 0 1 2 0zM7 10a1 1 0 1 1-2 0 1 1 0 0 1 2 0zM7 14a1 1 0 1 1-2 0 1 1 0 0 1 2 0z"/>
</svg> 