<svg xmlns="http://www.w3.org/2000/svg" viewBox="0 0 24 24" fill="#0075be" width="24" height="24">
  <path d="M17.5 12a5.5 5.5 0 1 1 0 11 5.5 5.5 0 0 1 0-11zm0 2a3.5 3.5 0 1 0 0 7 3.5 3.5 0 0 0 0-7zM6.5 1A5.5 5.5 0 0 1 12 6.5a5.5 5.5 0 0 1-5.5 5.5A5.5 5.5 0 0 1 1 6.5 5.5 5.5 0 0 1 6.5 1zm0 2A3.5 3.5 0 0 0 3 6.5 3.5 3.5 0 0 0 6.5 10 3.5 3.5 0 0 0 10 6.5 3.5 3.5 0 0 0 6.5 3z"/>
  <path d="M6.5 13a5.5 5.5 0 0 1 5.476 5H9.5a.5.5 0 0 0 0 1h2.5a.5.5 0 0 0 .5-.5V16a.5.5 0 0 0-1 0v2.475A4.5 4.5 0 0 0 6.5 14a.5.5 0 0 0 0 1 3.5 3.5 0 0 1 3.5 3.5.5.5 0 0 0 1 0A4.5 4.5 0 0 0 6.5 14a.5.5 0 0 0 0-1z"/>
  <path d="M17.5 11a5.5 5.5 0 0 1 5.5 5.5v.5h-1v-.5a4.5 4.5 0 0 0-4.5-4.5h-.5v-1h.5z"/>
</svg> 